<svg width="17" height="17" viewBox="0 0 17 17" fill="none" xmlns="http://www.w3.org/2000/svg">
<path d="M7.33329 14.0001C8.81244 13.9998 10.249 13.5046 11.4141 12.5934L15.0775 16.2567L16.2558 15.0784L12.5925 11.4151C13.5041 10.2498 13.9996 8.81295 14 7.33341C14 3.65758 11.0091 0.666748 7.33329 0.666748C3.65746 0.666748 0.666626 3.65758 0.666626 7.33341C0.666626 11.0092 3.65746 14.0001 7.33329 14.0001ZM7.33329 2.33341C10.0908 2.33341 12.3333 4.57591 12.3333 7.33341C12.3333 10.0909 10.0908 12.3334 7.33329 12.3334C4.57579 12.3334 2.33329 10.0909 2.33329 7.33341C2.33329 4.57591 4.57579 2.33341 7.33329 2.33341Z" fill="#6D6D6D"/>
</svg>
