<svg width="15" height="16" viewBox="0 0 15 16" fill="none" xmlns="http://www.w3.org/2000/svg">
<path d="M7.34798 15.6521C4.18201 15.6521 1.38696 13.7474 0.225913 10.7991C0.12019 10.532 0.25228 10.2287 0.520156 10.123C0.787267 10.0187 1.09132 10.1487 1.19704 10.418C2.1995 12.9634 4.61407 14.6086 7.34798 14.6086C10.9917 14.6086 13.9567 11.6436 13.9567 7.99987C13.9567 4.35611 10.9917 1.39113 7.34798 1.39113C4.61407 1.39113 2.1995 3.03635 1.19704 5.58173C1.09055 5.85101 0.787267 5.98106 0.520156 5.87674C0.25228 5.77102 0.12019 5.46773 0.225913 5.20062C1.38696 2.25234 4.18201 0.347656 7.34798 0.347656C11.5671 0.347656 15.0002 3.78074 15.0002 7.99987C15.0002 12.219 11.5671 15.6521 7.34798 15.6521V15.6521Z" fill="#2F2F2F"/>
</svg>
